# xmcd
#
# Track frame offsets:
#	150
#	13024
#	24710
#	36286
#	47762
#	61958
#	76278
#	90670
#	104808
#	117185
#	130365
#	143497
#	156776
#	168631
#	181462
#	192703
#	205015
#	218631
#	232694
#	245192
#	257324
#	272446
#
# Disc length: 3826 seconds
#
# Revision: 1
# Processed by: cddbd v1.5.2PL0 Copyright (c) Steve Scherf et al.
# Submitted via: audiograbber 1.83.01
#
DISCID=340ef016
DTITLE=Sunnyland Slim - 1947-1961 [CD 1)
DYEAR=2017
DGENRE=Blues
TTITLE0=Johnson Machine Gun
TTITLE1=Fly right,little girl
TTITLE2=Gypsy woman
TTITLE3=Little Anna Mae
TTITLE4=Farewell little girl
TTITLE5=Broke and hungry
TTITLE6=Illinois Central
TTITLE7=Happy head woman
TTITLE8=Across the hall blues
TTITLE9=Walking with the blues
TTITLE10=Sweet Lucy Blues
TTITLE11=No whiskey blues
TTITLE12=Jivin' boogie
TTITLE13=Brown skin woman
TTITLE14=My heavy load
TTITLE15=Keep your hands out of my money
TTITLE16=5 foot 4 gal
TTITLE17=I've done you wrong
TTITLE18=She ain't nowhere
TTITLE19=My baby,my baby
TTITLE20=Roll,tumble and skip (I cried)
TTITLE21=Train time (4 O'clock Blues)
EXTD=
EXTT0=
EXTT1=
EXTT2=
EXTT3=
EXTT4=
EXTT5=
EXTT6=
EXTT7=
EXTT8=
EXTT9=
EXTT10=
EXTT11=
EXTT12=
EXTT13=
EXTT14=
EXTT15=
EXTT16=
EXTT17=
EXTT18=
EXTT19=
EXTT20=
EXTT21=
PLAYORDER=
